<mxfile host="app.diagrams.net" modified="2023-09-23T12:58:38.213Z" agent="Mozilla/5.0 (Windows NT 10.0; Win64; x64) AppleWebKit/537.36 (KHTML, like Gecko) Chrome/117.0.0.0 Safari/537.36 Edg/117.0.2045.36" etag="01iALLbwStgFvd9_cBpJ" version="21.8.1" type="device">
  <diagram name="Page-1" id="783zyKjPirvREgc-gky5">
    <mxGraphModel dx="817" dy="447" grid="1" gridSize="10" guides="1" tooltips="1" connect="1" arrows="1" fold="1" page="1" pageScale="1" pageWidth="850" pageHeight="1100" math="0" shadow="0">
      <root>
        <mxCell id="0" />
        <mxCell id="1" parent="0" />
        <mxCell id="gZfNMxLbB_5LutQtRlj7-1" value="mesin output" style="text;html=1;strokeColor=none;fillColor=none;align=center;verticalAlign=middle;whiteSpace=wrap;rounded=0;" parent="1" vertex="1">
          <mxGeometry x="385" y="160" width="90" height="30" as="geometry" />
        </mxCell>
        <mxCell id="gZfNMxLbB_5LutQtRlj7-2" value="main&amp;nbsp;" style="strokeWidth=2;html=1;shape=mxgraph.flowchart.terminator;whiteSpace=wrap;" parent="1" vertex="1">
          <mxGeometry x="380" y="230" width="100" height="60" as="geometry" />
        </mxCell>
        <mxCell id="gZfNMxLbB_5LutQtRlj7-5" value="string str" style="shape=internalStorage;whiteSpace=wrap;html=1;dx=15;dy=15;rounded=1;arcSize=8;strokeWidth=2;" parent="1" vertex="1">
          <mxGeometry x="372.5" y="330" width="115" height="70" as="geometry" />
        </mxCell>
        <mxCell id="gZfNMxLbB_5LutQtRlj7-7" value="input getline (str)" style="shape=parallelogram;html=1;strokeWidth=2;perimeter=parallelogramPerimeter;whiteSpace=wrap;rounded=1;arcSize=12;size=0.23;" parent="1" vertex="1">
          <mxGeometry x="353" y="450" width="145" height="60" as="geometry" />
        </mxCell>
        <mxCell id="gZfNMxLbB_5LutQtRlj7-14" value="" style="edgeStyle=orthogonalEdgeStyle;rounded=0;orthogonalLoop=1;jettySize=auto;html=1;" parent="1" source="gZfNMxLbB_5LutQtRlj7-8" target="gZfNMxLbB_5LutQtRlj7-9" edge="1">
          <mxGeometry relative="1" as="geometry" />
        </mxCell>
        <mxCell id="gZfNMxLbB_5LutQtRlj7-8" value="output str" style="shape=parallelogram;html=1;strokeWidth=2;perimeter=parallelogramPerimeter;whiteSpace=wrap;rounded=1;arcSize=12;size=0.23;" parent="1" vertex="1">
          <mxGeometry x="353" y="560" width="145" height="60" as="geometry" />
        </mxCell>
        <mxCell id="gZfNMxLbB_5LutQtRlj7-9" value="end" style="strokeWidth=2;html=1;shape=mxgraph.flowchart.terminator;whiteSpace=wrap;" parent="1" vertex="1">
          <mxGeometry x="375" y="660" width="100" height="60" as="geometry" />
        </mxCell>
        <mxCell id="gZfNMxLbB_5LutQtRlj7-11" value="" style="endArrow=classic;html=1;rounded=0;exitX=0.5;exitY=1;exitDx=0;exitDy=0;entryX=0.5;entryY=0;entryDx=0;entryDy=0;" parent="1" target="gZfNMxLbB_5LutQtRlj7-5" edge="1">
          <mxGeometry width="50" height="50" relative="1" as="geometry">
            <mxPoint x="430" y="290" as="sourcePoint" />
            <mxPoint x="480" y="280" as="targetPoint" />
          </mxGeometry>
        </mxCell>
        <mxCell id="gZfNMxLbB_5LutQtRlj7-12" value="" style="endArrow=classic;html=1;rounded=0;exitX=0.5;exitY=1;exitDx=0;exitDy=0;" parent="1" source="gZfNMxLbB_5LutQtRlj7-5" edge="1">
          <mxGeometry width="50" height="50" relative="1" as="geometry">
            <mxPoint x="400" y="420" as="sourcePoint" />
            <mxPoint x="430" y="450" as="targetPoint" />
          </mxGeometry>
        </mxCell>
        <mxCell id="gZfNMxLbB_5LutQtRlj7-13" value="" style="endArrow=classic;html=1;rounded=0;exitX=0.5;exitY=1;exitDx=0;exitDy=0;entryX=0.5;entryY=0;entryDx=0;entryDy=0;" parent="1" source="gZfNMxLbB_5LutQtRlj7-7" target="gZfNMxLbB_5LutQtRlj7-8" edge="1">
          <mxGeometry width="50" height="50" relative="1" as="geometry">
            <mxPoint x="420" y="560" as="sourcePoint" />
            <mxPoint x="470" y="510" as="targetPoint" />
          </mxGeometry>
        </mxCell>
      </root>
    </mxGraphModel>
  </diagram>
</mxfile>
